<svg width="24" height="24" viewBox="0 0 24 24" fill="none" xmlns="http://www.w3.org/2000/svg">
<path d="M21.6614 12.6882H2.34069C2.11803 12.6882 1.9045 12.5998 1.74705 12.4423C1.58961 12.2849 1.50116 12.0714 1.50116 11.8487V8.62933C1.50116 8.40667 1.58961 8.19313 1.74705 8.03569C1.9045 7.87825 2.11803 7.78979 2.34069 7.78979H21.6614C21.8841 7.78979 22.0976 7.87824 22.2551 8.03567C22.4126 8.19311 22.5011 8.40665 22.5012 8.62933V11.8487C22.5011 12.0714 22.4126 12.2849 22.2551 12.4424C22.0976 12.5998 21.8841 12.6882 21.6614 12.6882V12.6882ZM2.76678 11.4226H21.2355V9.05542H2.76678V11.4226Z" fill="white"/>
<path d="M19.2188 21.4059H4.79463C4.59082 21.4061 4.3941 21.3311 4.24211 21.1953C4.09012 21.0596 3.99352 20.8725 3.9708 20.67L3.03494 12.3667C3.02191 12.2508 3.0335 12.1334 3.06896 12.0222C3.10441 11.911 3.16293 11.8086 3.24069 11.7216C3.31845 11.6346 3.4137 11.565 3.5202 11.5173C3.62671 11.4696 3.74208 11.445 3.85877 11.4449H20.1539C20.2706 11.4449 20.386 11.4695 20.4926 11.5172C20.5991 11.5648 20.6944 11.6344 20.7722 11.7214C20.8499 11.8085 20.9085 11.9109 20.9439 12.0221C20.9793 12.1333 20.9909 12.2508 20.9777 12.3667L20.0419 20.67C20.0192 20.8724 19.9227 21.0593 19.7708 21.1951C19.619 21.3309 19.4225 21.4059 19.2188 21.4059V21.4059ZM5.1858 20.1403H18.8278L19.665 12.7106H4.34767L5.1858 20.1403Z" fill="white"/>
<path d="M8.05898 18.9392C7.90531 18.9391 7.75694 18.883 7.64157 18.7815C7.5262 18.68 7.45172 18.5399 7.43203 18.3875L6.94218 14.5907C6.92071 14.4242 6.96625 14.256 7.0688 14.123C7.17134 13.9901 7.32249 13.9034 7.48898 13.8819C7.65548 13.8604 7.82369 13.906 7.9566 14.0085C8.08952 14.1111 8.17625 14.2622 8.19773 14.4287L8.68758 18.2256C8.6982 18.308 8.69248 18.3917 8.67075 18.4719C8.64902 18.5521 8.6117 18.6273 8.56093 18.6931C8.51015 18.7589 8.44691 18.814 8.37482 18.8554C8.30273 18.8967 8.2232 18.9235 8.14078 18.9341C8.11365 18.9375 8.08633 18.9393 8.05898 18.9392V18.9392Z" fill="white"/>
<path d="M15.9537 18.9391C15.9263 18.9391 15.899 18.9374 15.8719 18.934C15.7895 18.9234 15.7099 18.8966 15.6378 18.8553C15.5657 18.8139 15.5025 18.7588 15.4517 18.693C15.401 18.6272 15.3636 18.552 15.3419 18.4718C15.3202 18.3916 15.3145 18.3079 15.3251 18.2255L15.8149 14.4286C15.8364 14.2621 15.9232 14.1109 16.0561 14.0083C16.189 13.9057 16.3573 13.8602 16.5238 13.8817C16.6903 13.9031 16.8415 13.9899 16.9441 14.1228C17.0466 14.2558 17.0922 14.424 17.0707 14.5905L16.5806 18.3874C16.5609 18.5398 16.4865 18.6799 16.3711 18.7814C16.2557 18.8829 16.1074 18.939 15.9537 18.9391V18.9391Z" fill="white"/>
<path d="M11.3683 18.2933V14.5236C11.3683 14.1901 11.6212 13.9042 11.9543 13.88C12.0411 13.8736 12.1283 13.8851 12.2104 13.9139C12.2926 13.9427 12.3679 13.9881 12.4317 14.0473C12.4955 14.1065 12.5464 14.1783 12.5812 14.2581C12.616 14.3378 12.634 14.4239 12.634 14.511V18.306C12.6341 18.3932 12.6161 18.4795 12.5813 18.5594C12.5465 18.6394 12.4955 18.7112 12.4316 18.7706C12.3676 18.8299 12.2921 18.8753 12.2098 18.9041C12.1275 18.9328 12.0401 18.9442 11.9531 18.9376C11.6212 18.9128 11.3683 18.6268 11.3683 18.2933Z" fill="white"/>
<path d="M13.7037 7.90517L12.1294 3.57954C12.0406 3.33489 11.9044 3.11014 11.7286 2.91817C11.5529 2.7262 11.341 2.57076 11.1051 2.46076C10.8692 2.35076 10.6139 2.28836 10.3539 2.27712C10.0939 2.26587 9.83418 2.30602 9.58968 2.39525H9.58757C9.34307 2.48423 9.11849 2.62051 8.92666 2.79629C8.73484 2.97207 8.57951 3.18392 8.46956 3.41973C8.35961 3.65554 8.29718 3.91071 8.28585 4.17065C8.27451 4.43059 8.31449 4.69021 8.4035 4.9347L9.66163 8.39173H11.0679L9.64546 4.48353C9.58559 4.31921 9.59344 4.13784 9.66728 3.9793C9.74112 3.82077 9.8749 3.69805 10.0392 3.63814H10.0404H10.0416C10.1138 3.61156 10.1901 3.59784 10.267 3.59759C10.4023 3.59798 10.5342 3.63973 10.645 3.71723C10.7559 3.79474 10.8404 3.90429 10.8872 4.03119L12.4617 8.35704C12.4662 8.369 12.4702 8.38048 12.4734 8.39244H13.8145C13.7983 8.22599 13.761 8.06227 13.7037 7.90517Z" fill="white"/>
<path d="M19.6826 10.8833H19.6793L17.25 10.8711C17.0829 10.8675 16.9238 10.7985 16.8071 10.6789C16.6903 10.5593 16.6251 10.3986 16.6256 10.2314C16.626 10.0643 16.692 9.90396 16.8094 9.78495C16.9267 9.66593 17.0861 9.59772 17.2533 9.59497H17.2566L19.687 9.60739C19.8562 9.60783 20.0183 9.67546 20.1377 9.79541C20.257 9.91536 20.3238 10.0778 20.3234 10.247C20.3229 10.4162 20.2553 10.5783 20.1353 10.6976C20.0154 10.817 19.8529 10.8838 19.6837 10.8833H19.6826Z" fill="white"/>
</svg>
