<svg width="246" height="246" viewBox="0 0 246 246" fill="none" xmlns="http://www.w3.org/2000/svg">
<ellipse cx="124.836" cy="196.433" rx="73.4328" ry="5.50746" fill="#DCEBC1"/>
<circle cx="123" cy="123" r="123" fill="url(#paint0_linear)" fill-opacity="0.18"/>
<path fill-rule="evenodd" clip-rule="evenodd" d="M184.294 89.5101L112.919 43.8244C111.587 42.9718 109.816 43.3604 108.963 44.6925C108.923 44.7562 108.884 44.8214 108.849 44.8881L55.2681 145.3C54.5649 146.618 54.9928 148.255 56.2508 149.06L127.626 194.746C128.958 195.599 130.729 195.21 131.582 193.878C131.622 193.814 131.661 193.749 131.696 193.682L185.277 93.2701C185.98 91.9523 185.552 90.3153 184.294 89.5101Z" fill="#AAD169"/>
<path fill-rule="evenodd" clip-rule="evenodd" d="M179.241 86.8136L107.866 41.128C106.534 40.2753 104.763 40.664 103.91 41.9961C103.869 42.0597 103.831 42.125 103.795 42.1917L50.2149 142.604C49.5117 143.922 49.9395 145.559 51.1976 146.364L122.573 192.049C123.905 192.902 125.676 192.513 126.528 191.181C126.569 191.118 126.607 191.052 126.643 190.986L180.223 90.5737C180.927 89.2559 180.499 87.6189 179.241 86.8136Z" fill="#C3DE95"/>
<path fill-rule="evenodd" clip-rule="evenodd" d="M172.826 90.4244C158.861 117.535 145.128 138.169 131.628 152.326C118.128 166.482 105.34 174.874 93.2653 177.5L37.2388 114.74C46.9581 114.428 57.8346 108.195 69.8683 96.0407C81.902 83.8864 94.4831 67.6082 107.611 47.2059L172.826 90.4244Z" fill="#DCEBC1"/>
<path fill-rule="evenodd" clip-rule="evenodd" d="M160.339 71.0896L121.395 46.8709L121.652 50.446L118.213 56.8907L158.019 85.0428L161.982 77.6159L160.339 71.0896Z" fill="#C3DE95"/>
<path fill-rule="evenodd" clip-rule="evenodd" d="M160.339 71.0897L169.135 74.5106L131.426 52.2235L121.395 46.871L160.339 71.0897Z" fill="#DCEBC1"/>
<path fill-rule="evenodd" clip-rule="evenodd" d="M169.135 74.5107L160.339 71.0899L161.295 74.8309L166.326 77.8664L167.563 75.547L169.135 74.5107Z" fill="#AAD169"/>
<path fill-rule="evenodd" clip-rule="evenodd" d="M109.029 69.426C108.3 70.3614 108.467 71.711 109.402 72.4404L148.188 102.686C149.123 103.416 150.473 103.249 151.202 102.313C151.932 101.378 151.765 100.028 150.829 99.2989L112.043 69.0531C111.108 68.3237 109.758 68.4906 109.029 69.426Z" fill="#F4F9EB"/>
<path fill-rule="evenodd" clip-rule="evenodd" d="M99.733 82.9975C98.9762 83.911 99.1032 85.2649 100.017 86.0216L135.983 115.819C136.897 116.576 138.251 116.449 139.008 115.535C139.764 114.622 139.637 113.268 138.724 112.511L102.757 82.7138C101.844 81.9571 100.49 82.0841 99.733 82.9975Z" fill="#F4F9EB"/>
<path fill-rule="evenodd" clip-rule="evenodd" d="M87.7917 96.2092C87.0121 97.1032 87.1048 98.4599 87.9988 99.2395L123.284 130.01C124.178 130.79 125.534 130.697 126.314 129.803C127.094 128.909 127.001 127.552 126.107 126.773L90.822 96.0021C89.928 95.2225 88.5713 95.3152 87.7917 96.2092Z" fill="#F4F9EB"/>
<defs>
<linearGradient id="paint0_linear" x1="0" y1="0" x2="230.836" y2="276.329" gradientUnits="userSpaceOnUse">
<stop offset="0.213029" stop-color="#91C43D"/>
<stop offset="1" stop-color="#F4F9EB" stop-opacity="0"/>
</linearGradient>
</defs>
</svg>
