<svg width="246" height="246" viewBox="0 0 246 246" fill="none" xmlns="http://www.w3.org/2000/svg">
<ellipse cx="124.836" cy="196.433" rx="73.4328" ry="5.50746" fill="#DCEBC1"/>
<path fill-rule="evenodd" clip-rule="evenodd" d="M88.4254 44.0597H154.209C155.899 44.0597 157.269 45.4296 157.269 47.1194V53.7141C157.269 59.046 161.591 63.3684 166.923 63.3684H177.157C178.847 63.3684 180.216 64.7383 180.216 66.4281V99.6096C180.216 122.515 169.8 144.178 151.909 158.48L123.228 181.408C122.111 182.301 120.524 182.301 119.407 181.408L90.7256 158.48C72.8343 144.178 62.4179 122.515 62.4179 99.6096V66.4281C62.4179 64.7383 63.7878 63.3684 65.4776 63.3684H75.7113C81.0433 63.3684 85.3657 59.046 85.3657 53.7141V47.1194C85.3657 45.4296 86.7355 44.0597 88.4254 44.0597Z" fill="#C3DE95"/>
<path fill-rule="evenodd" clip-rule="evenodd" d="M96.3625 58.5932H146.271C147.961 58.5932 149.331 59.9631 149.331 61.6529V66.856C149.331 71.4194 153.03 75.1187 157.594 75.1187H164.153C165.843 75.1187 167.212 76.4886 167.212 78.1784V103.265C167.212 121.05 159.11 137.866 145.199 148.949L123.224 166.458C122.108 167.347 120.526 167.347 119.41 166.458L97.4345 148.949C83.5244 137.866 75.4214 121.05 75.4214 103.265V78.1784C75.4214 76.4886 76.7913 75.1187 78.4811 75.1187H85.0401C89.6035 75.1187 93.3028 71.4194 93.3028 66.856V61.6529C93.3028 59.9631 94.6727 58.5932 96.3625 58.5932Z" fill="#DCEBC1"/>
<path fill-rule="evenodd" clip-rule="evenodd" d="M149.891 84.4145C151.574 86.1998 151.568 89.0875 149.877 90.8643L122.16 119.989C120.474 121.76 117.751 121.76 116.065 119.989L103.467 106.751C101.776 104.974 101.769 102.086 103.452 100.301C105.135 98.5153 107.87 98.5084 109.561 100.285L119.112 110.322L143.783 84.399C145.474 82.6222 148.209 82.6291 149.891 84.4145Z" fill="#F4F9EB"/>
<circle cx="123" cy="123" r="123" fill="url(#paint0_linear)" fill-opacity="0.18"/>
<defs>
<linearGradient id="paint0_linear" x1="0" y1="0" x2="230.836" y2="276.329" gradientUnits="userSpaceOnUse">
<stop offset="0.213029" stop-color="#91C43D"/>
<stop offset="1" stop-color="#F4F9EB" stop-opacity="0"/>
</linearGradient>
</defs>
</svg>
