<svg width="246" height="246" viewBox="0 0 246 246" fill="none" xmlns="http://www.w3.org/2000/svg">
<circle cx="123" cy="123" r="123" fill="url(#paint0_linear)" fill-opacity="0.18"/>
<ellipse cx="132.179" cy="181.761" rx="73.4328" ry="5.50746" fill="#DCEBC1"/>
<path d="M139.526 167.387C139.526 167.674 139.469 167.959 139.359 168.224C139.249 168.49 139.087 168.731 138.883 168.933C138.68 169.136 138.438 169.297 138.172 169.406C137.906 169.515 137.621 169.571 137.334 169.569H59.2427C58.6629 169.569 58.1067 169.34 57.6959 168.931C57.285 168.522 57.053 167.966 57.0505 167.387V80.7618C57.0505 79.5575 58.0384 78.579 59.2427 78.579H137.334C138.557 78.579 139.526 79.5575 139.526 80.7618V167.387Z" fill="#C3DE95"/>
<path d="M154.806 169.588C154.806 169.588 149.672 169.569 141.568 169.569C140.988 169.569 140.432 169.34 140.021 168.931C139.61 168.522 139.378 167.966 139.376 167.387V78.579L154.806 69.1046V169.588Z" fill="#AAD169"/>
<path d="M62.4179 96.697H132.179V122.398H62.4179V96.697Z" fill="#F4F9EB"/>
<path d="M192.986 134.174V168.233V170.416H142.659C142.08 170.416 141.525 170.186 141.116 169.777C140.706 169.367 140.476 168.812 140.476 168.233V103.521C140.476 102.307 141.455 101.329 142.659 101.329H181.714" fill="#C3DE95"/>
<path d="M190.935 94.3195L181.526 101.47H141.634L153.3 94.3195H190.935Z" fill="#DCEBC1"/>
<path d="M187.962 135.877V134.504L178.873 107.934H158.221C157.989 107.934 157.759 107.98 157.544 108.068C157.329 108.157 157.135 108.288 156.97 108.452C156.806 108.616 156.676 108.811 156.587 109.026C156.498 109.24 156.452 109.47 156.452 109.703V135.877H187.962Z" fill="#F4F9EB"/>
<path d="M76.0086 167.679C76.0086 169.528 76.3729 171.36 77.0807 173.069C77.7886 174.777 78.826 176.33 80.1339 177.638C81.4418 178.946 82.9945 179.983 84.7033 180.691C86.4121 181.399 88.2436 181.763 90.0933 181.763C91.9429 181.763 93.7744 181.399 95.4832 180.691C97.192 179.983 98.7447 178.946 100.053 177.638C101.36 176.33 102.398 174.777 103.106 173.069C103.814 171.36 104.178 169.528 104.178 167.679C104.178 163.943 102.694 160.361 100.053 157.719C97.4112 155.078 93.8287 153.594 90.0933 153.594C86.3578 153.594 82.7753 155.078 80.1339 157.719C77.4925 160.361 76.0086 163.943 76.0086 167.679Z" fill="#F4F9EB"/>
<path d="M152.651 167.679C152.651 171.414 154.135 174.997 156.776 177.638C159.418 180.279 163 181.763 166.736 181.763C170.471 181.763 174.054 180.279 176.695 177.638C179.336 174.997 180.82 171.414 180.82 167.679C180.82 163.943 179.336 160.361 176.695 157.719C174.054 155.078 170.471 153.594 166.736 153.594C163 153.594 159.418 155.078 156.776 157.719C154.135 160.361 152.651 163.943 152.651 167.679Z" fill="#F4F9EB"/>
<path d="M74.2681 69.1046H154.053L139.375 78.8895H57.3326L74.2681 69.1046Z" fill="#DCEBC1"/>
<path d="M168.392 184.699C159.039 184.699 151.418 177.078 151.418 167.735C151.418 158.373 159.039 150.762 168.392 150.762C177.744 150.762 185.355 158.373 185.355 167.735C185.355 177.078 177.744 184.699 168.392 184.699ZM168.392 156.558C165.425 156.558 162.579 157.736 160.481 159.834C158.383 161.932 157.205 164.777 157.205 167.744C157.205 170.711 158.383 173.557 160.481 175.655C162.579 177.753 165.425 178.931 168.392 178.931C171.358 178.931 174.204 177.753 176.302 175.655C178.4 173.557 179.578 170.711 179.578 167.744C179.578 164.777 178.4 161.932 176.302 159.834C174.204 157.736 171.358 156.558 168.392 156.558Z" fill="#91C43D"/>
<path d="M93.1229 184.699C83.7708 184.699 76.1498 177.078 76.1498 167.735C76.1498 158.373 83.7708 150.762 93.1229 150.762C102.475 150.762 110.087 158.373 110.087 167.735C110.087 177.078 102.475 184.699 93.1229 184.699ZM93.1229 156.558C90.156 156.558 87.3106 157.736 85.2126 159.834C83.1147 161.932 81.9361 164.777 81.9361 167.744C81.9361 170.711 83.1147 173.557 85.2126 175.655C87.3106 177.753 90.156 178.931 93.1229 178.931C96.0898 178.931 98.9352 177.753 101.033 175.655C103.131 173.557 104.31 170.711 104.31 167.744C104.31 164.777 103.131 161.932 101.033 159.834C98.9352 157.736 96.0898 156.558 93.1229 156.558Z" fill="#91C43D"/>
<path d="M166.134 184.699C156.781 184.699 149.16 177.078 149.16 167.735C149.16 158.373 156.781 150.762 166.134 150.762C175.486 150.762 183.097 158.373 183.097 167.735C183.097 177.078 175.486 184.699 166.134 184.699ZM166.134 156.558C163.167 156.558 160.321 157.736 158.223 159.834C156.125 161.932 154.947 164.777 154.947 167.744C154.947 170.711 156.125 173.557 158.223 175.655C160.321 177.753 163.167 178.931 166.134 178.931C169.1 178.931 171.946 177.753 174.044 175.655C176.142 173.557 177.32 170.711 177.32 167.744C177.32 164.777 176.142 161.932 174.044 159.834C171.946 157.736 169.1 156.558 166.134 156.558Z" fill="#AAD169"/>
<path d="M90.0933 184.642C80.7412 184.642 73.1296 177.021 73.1296 167.678C73.1296 158.317 80.7412 150.705 90.0933 150.705C99.4454 150.705 107.066 158.317 107.066 167.678C107.066 177.021 99.4454 184.642 90.0933 184.642ZM90.0933 156.501C87.1288 156.503 84.2862 157.682 82.1891 159.777C80.092 161.872 78.9115 164.714 78.9065 167.678C78.9046 169.891 79.5591 172.055 80.7872 173.896C82.0153 175.737 83.7618 177.172 85.8058 178.02C87.8497 178.869 90.0993 179.091 92.27 178.661C94.4406 178.23 96.4348 177.166 98.0002 175.601C99.5657 174.037 100.632 172.044 101.064 169.874C101.497 167.703 101.276 165.454 100.429 163.409C99.583 161.364 98.1492 159.617 96.3093 158.387C94.4695 157.157 92.3062 156.501 90.0933 156.501Z" fill="#AAD169"/>
<path d="M202.225 127.541V161.6L192.816 170.632V134.467L181.526 101.762L190.953 94.6958" fill="#AAD169"/>
<defs>
<linearGradient id="paint0_linear" x1="0" y1="0" x2="230.836" y2="276.329" gradientUnits="userSpaceOnUse">
<stop offset="0.213029" stop-color="#91C43D"/>
<stop offset="1" stop-color="#F4F9EB" stop-opacity="0"/>
</linearGradient>
</defs>
</svg>
