<svg width="24" height="24" viewBox="0 0 24 24" fill="none" xmlns="http://www.w3.org/2000/svg">
<path d="M21 14.7368V19.5C21 20.3285 20.3285 21 19.5 21H4.5C3.67158 21 3 20.3285 3 19.5V4.5C3 3.67158 3.67158 3 4.5 3H9" stroke="#3C3C43" stroke-opacity="0.65" stroke-width="1.5" stroke-linecap="round" stroke-linejoin="round"/>
<path fill-rule="evenodd" clip-rule="evenodd" d="M14 2.25C13.5858 2.25 13.25 2.58579 13.25 3C13.25 3.41421 13.5858 3.75 14 3.75H19.1894L12.3697 10.5697C12.0768 10.8626 12.0768 11.3374 12.3697 11.6303C12.6626 11.9232 13.1375 11.9232 13.4304 11.6303L20.25 4.81068V10C20.25 10.4142 20.5858 10.75 21 10.75C21.4142 10.75 21.75 10.4142 21.75 10V3C21.75 2.58579 21.4142 2.25 21 2.25H14Z" fill="#3C3C43" fill-opacity="0.65"/>
</svg>
