<svg width="58" height="58" viewBox="0 0 58 58" fill="none" xmlns="http://www.w3.org/2000/svg">
<path fill-rule="evenodd" clip-rule="evenodd" d="M29 54.7778C43.2367 54.7778 54.7778 43.2367 54.7778 29C54.7778 14.7633 43.2367 3.22222 29 3.22222C14.7633 3.22222 3.22222 14.7633 3.22222 29C3.22222 43.2367 14.7633 54.7778 29 54.7778ZM29 58C45.0163 58 58 45.0163 58 29C58 12.9837 45.0163 0 29 0C12.9837 0 0 12.9837 0 29C0 45.0163 12.9837 58 29 58Z" fill="#F4F9EB"/>
<path fill-rule="evenodd" clip-rule="evenodd" d="M42.8077 19.3706C43.7334 20.3375 43.7298 21.9015 42.7997 22.8638L27.5533 38.6379C26.6264 39.597 25.1281 39.597 24.2012 38.6379L17.271 31.4679C16.3409 30.5055 16.3373 28.9415 17.263 27.9746C18.1886 27.0076 19.6931 27.0039 20.6232 27.9662L25.8772 33.4021L39.4475 19.3622C40.3776 18.3999 41.882 18.4036 42.8077 19.3706Z" fill="#F4F9EB"/>
</svg>
