<svg width="20" height="20" viewBox="0 0 20 20" fill="none" xmlns="http://www.w3.org/2000/svg">
<path d="M15.8333 8.75008V16.6667C15.8333 17.127 15.4603 17.5001 15 17.5001H3.33333C2.8731 17.5001 2.5 17.127 2.5 16.6667V5.00008C2.5 4.53983 2.8731 4.16675 3.33333 4.16675H10.9848" stroke="#3C3C43" stroke-opacity="0.65" stroke-width="1.5" stroke-miterlimit="10" stroke-linecap="round" stroke-linejoin="round"/>
<path d="M5 12.9296L7.5 9.58341L8.75 10.8334L10.2083 8.54175L13.3333 12.9296H5Z" stroke="#3C3C43" stroke-opacity="0.65" stroke-width="1.5" stroke-miterlimit="10" stroke-linecap="round" stroke-linejoin="round"/>
<path fill-rule="evenodd" clip-rule="evenodd" d="M16.5808 2.41479C16.5808 2.00058 16.245 1.66479 15.8308 1.66479C15.4166 1.66479 15.0808 2.00058 15.0808 2.41479V3.41675H14.1667C13.7525 3.41675 13.4167 3.75253 13.4167 4.16675C13.4167 4.58096 13.7525 4.91675 14.1667 4.91675H15.0808V5.74811C15.0808 6.16233 15.4166 6.49811 15.8308 6.49811C16.245 6.49811 16.5808 6.16233 16.5808 5.74811V4.91675H17.5001C17.9143 4.91675 18.2501 4.58096 18.2501 4.16675C18.2501 3.75253 17.9143 3.41675 17.5001 3.41675H16.5808V2.41479Z" fill="#3C3C43" fill-opacity="0.65"/>
</svg>
