<svg width="85" height="112" viewBox="0 0 85 112" fill="none" xmlns="http://www.w3.org/2000/svg">
<mask id="mask0" mask-type="alpha" maskUnits="userSpaceOnUse" x="0" y="0" width="112" height="112">
<circle cx="55.8614" cy="55.8615" r="37.5" transform="rotate(-45 55.8614 55.8615)" stroke="#C4C4C4" stroke-width="4"/>
<circle cx="55.8612" cy="55.8615" r="28" transform="rotate(-45 55.8612 55.8615)" stroke="#C4C4C4"/>
<path d="M50.6656 61.244L47.2715 57.8498L40.9924 64.1289L41.5863 64.7229L47.246 59.0632L49.4607 61.2779L44.7514 65.9872L43.4955 64.7314L42.8846 65.3423L47.3394 69.7971C48.0352 70.4929 48.7309 70.5099 49.4183 69.8226L54.0173 65.2235C54.3567 64.8502 54.5434 64.4768 54.5519 64.112C54.5349 63.6877 54.0512 62.9156 53.0839 61.7785L52.3033 62.1858C53.1857 63.1701 53.6185 63.8235 53.6015 64.1459C53.576 64.375 53.4573 64.5956 53.2536 64.7993L48.994 69.0589C48.6037 69.4492 48.2133 69.4492 47.84 69.0759L45.3368 66.5727L50.6656 61.244ZM49.3843 55.0752L49.3589 55.8982C50.4619 55.7794 51.4038 55.7709 52.1845 55.8558L52.176 54.9648C51.3444 54.9139 50.411 54.9479 49.3843 55.0752ZM62.0528 57.4256L63.8432 55.6352L63.3765 54.863C63.1899 55.0836 62.9014 55.3891 62.528 55.7794C62.1377 56.1698 61.7728 56.5516 61.3995 56.9249C60.7037 57.6207 60.1097 58.1977 59.6345 58.6559C59.0915 59.1651 58.6248 59.513 58.2429 59.6742C57.8781 59.8015 57.4708 59.8524 57.0126 59.8354C56.8514 59.8269 56.7156 59.8439 56.5968 59.8609L53.4148 56.6789L51.6075 58.4862L52.1845 59.0632L53.4063 57.8414L55.9774 60.4124C55.7737 60.9215 55.8162 61.7616 56.0877 62.9495L56.9532 62.8986C56.6307 61.6258 56.5883 60.8876 56.792 60.6839C56.9023 60.5736 57.089 60.5227 57.352 60.5482C57.929 60.5821 58.4551 60.4803 58.9133 60.2257C59.3545 59.9712 59.8721 59.5554 60.4576 58.9869C61.0346 58.4268 61.5692 57.9092 62.0528 57.4256ZM60.6613 56.5431C61.1704 56.034 61.1789 55.5164 60.6867 55.0242L56.9362 51.2737L58.192 50.0179L57.5896 49.4155L56.3338 50.6713L54.9591 49.2967L54.3397 49.9161L55.7143 51.2907L52.5069 54.4982L53.1094 55.1006L56.3168 51.8932L59.923 55.4994C60.1521 55.7285 60.1437 55.9746 59.9061 56.2122C59.5497 56.5686 59.1509 56.9334 58.7351 57.2983L59.4563 57.748L60.6613 56.5431ZM54.7894 54.9309L54.6197 55.7115C55.7568 55.8134 56.7241 55.9661 57.5387 56.1698L57.6914 55.3382C56.9277 55.1515 55.9604 55.0158 54.7894 54.9309ZM57.7932 46.4796L58.7436 47.4299L58.2175 47.956L58.786 48.5245L59.3121 47.9984L62.9014 51.5877L62.2819 52.2071L62.8589 52.7841L66.8725 48.7706L66.2955 48.1936L65.7439 48.7451L62.1547 45.1559L62.6638 44.6467L62.0953 44.0782L61.5862 44.5873L60.6528 43.654L60.0588 44.2479L60.9922 45.1813L59.3376 46.8359L58.3872 45.8856L57.7932 46.4796ZM63.4953 50.9937L62.6638 50.1622L64.3184 48.5075L65.15 49.3391L63.4953 50.9937ZM61.5607 45.7498L62.4092 46.5984L60.7546 48.253L59.9061 47.4045L61.5607 45.7498ZM62.1292 49.6276L61.2892 48.7876L62.9438 47.1329L63.7838 47.973L62.1292 49.6276ZM65.7948 50.2895L65.6167 51.0616C66.5076 51.1889 67.2883 51.3586 67.9416 51.5707L68.0689 50.7986C68.0774 50.824 68.0859 50.8495 68.0859 50.8834L68.9853 50.8495C68.7986 49.5427 68.2132 48.2784 67.2119 47.0396L68.858 45.3934L70.5975 47.1329C70.8521 47.3875 70.869 47.6251 70.6484 47.8457C70.3769 48.1172 70.0714 48.3888 69.7405 48.6857L70.5127 49.1185L71.4121 48.219C71.9043 47.7269 71.9127 47.2263 71.4291 46.7426L64.7766 40.0901L61.9595 42.9073L65.9306 46.8784C67.1016 48.0833 67.8143 49.3561 68.0434 50.7052C67.458 50.544 66.7028 50.3998 65.7948 50.2895ZM64.1317 51.9356C64.3948 52.8266 64.5136 53.6921 64.5051 54.5321L65.3366 54.3963C65.3112 53.5223 65.15 52.6144 64.8615 51.681L64.1317 51.9356ZM65.1839 44.9268L66.7876 43.323L68.298 44.8334L66.6858 46.4456C66.6179 46.3777 66.5585 46.3014 66.4822 46.225L65.1839 44.9268ZM66.2276 42.763L64.6239 44.3667L63.139 42.8818L64.7427 41.2781L66.2276 42.763Z" fill="#3C3C43" fill-opacity="0.65"/>
</mask>
<g mask="url(#mask0)">
<rect opacity="0.59" x="4" y="36" width="71" height="76" fill="#C4C4C4"/>
</g>
</svg>
