<svg width="85" height="112" viewBox="0 0 85 112" fill="none" xmlns="http://www.w3.org/2000/svg">
<mask id="mask0" mask-type="alpha" maskUnits="userSpaceOnUse" x="16" y="16" width="80" height="80">
<circle cx="55.8614" cy="55.8615" r="37.5" transform="rotate(-45 55.8614 55.8615)" stroke="#C4C4C4" stroke-width="4"/>
<circle cx="55.8615" cy="55.8615" r="28" transform="rotate(-45 55.8615 55.8615)" stroke="#C4C4C4"/>
<path d="M50.6656 61.244L47.2715 57.8498L40.9924 64.1289L41.5863 64.7229L47.246 59.0632L49.4607 61.2779L44.7514 65.9872L43.4955 64.7314L42.8846 65.3423L47.3394 69.7971C48.0352 70.4929 48.7309 70.5099 49.4183 69.8226L54.0173 65.2235C54.3567 64.8502 54.5434 64.4768 54.5519 64.112C54.5349 63.6877 54.0512 62.9156 53.0839 61.7785L52.3033 62.1858C53.1857 63.1701 53.6185 63.8235 53.6015 64.1459C53.576 64.375 53.4573 64.5956 53.2536 64.7993L48.994 69.0589C48.6037 69.4492 48.2133 69.4492 47.84 69.0759L45.3368 66.5727L50.6656 61.244ZM51.9893 53.9636L52.5748 54.5491L54.7979 52.3259L55.604 53.132L53.6694 55.0667L56.0707 57.468L57.9714 55.5673C58.5145 56.2122 58.8793 56.8146 59.0745 57.3662C58.3023 57.4935 57.5132 57.5189 56.6901 57.4256L56.5459 58.2147C57.4368 58.325 58.3193 58.308 59.1763 58.1638C59.1594 58.9275 58.7606 59.8015 57.9884 60.7603L58.8115 61.0573C59.6515 59.9287 60.0673 58.902 60.0588 57.9771C61.4843 57.6038 62.825 56.8571 64.0893 55.7455L63.6566 55.0073C62.4856 56.0594 61.2383 56.7807 59.923 57.1625C59.7279 56.5092 59.2866 55.7794 58.5908 54.9479L60.6103 52.9284L58.209 50.527L56.2235 52.5126L55.4174 51.7065L57.7508 49.373L57.1653 48.7876L54.8319 51.121L53.9664 50.2555L53.3469 50.8749L54.2124 51.7404L51.9893 53.9636ZM59.4818 52.9538L58.0648 54.3709C57.9969 54.303 57.9375 54.2266 57.8696 54.1587L56.7665 53.0557L58.1751 51.6471L59.4818 52.9538ZM57.4453 54.9903L56.0962 56.3395L54.7894 55.0327L56.1471 53.6751L57.2502 54.7782C57.3181 54.8461 57.3775 54.9224 57.4453 54.9903ZM52.6342 57.7141L57.369 62.4489L57.9799 61.8379L52.2693 56.1273C51.9978 55.2279 51.6329 54.3369 51.1832 53.4629L50.3432 53.7769C51.2935 55.5079 51.845 57.3322 51.9978 59.2499L52.8463 59.6911C52.8209 59.0208 52.7445 58.3674 52.6342 57.7141ZM61.4758 48.6688L63.6311 46.5135L65.116 47.9984L62.9608 50.1537L61.4758 48.6688ZM63.4869 50.7477L65.6761 48.5585L68.1622 51.0446L68.7902 50.4167L66.304 47.9305L68.612 45.6226L70.0884 47.099C70.4448 47.4554 70.4618 47.7948 70.1563 48.1003C69.8678 48.3888 69.5369 48.6857 69.1805 49.0082L69.9442 49.4494L70.92 48.4736C71.5139 47.8796 71.5139 47.2857 70.92 46.6917L64.5645 40.3362L58.2429 46.6578L62.3159 50.7307C63.4614 51.9101 64.1402 53.149 64.3524 54.4472L65.2348 54.3963C65.0651 53.1405 64.4796 51.9271 63.4869 50.7477ZM68.0519 45.0625L65.7439 47.3705L64.259 45.8856L66.567 43.5776L68.0519 45.0625ZM65.9985 43.0091L63.6905 45.3171L62.231 43.8576L64.539 41.5496L65.9985 43.0091ZM61.6031 44.4855L63.0626 45.945L60.9073 48.1003L59.4479 46.6408L61.6031 44.4855Z" fill="#3C3C43" fill-opacity="0.65"/>
</mask>
<g mask="url(#mask0)">
<rect x="4" y="36" width="71" height="76" fill="#AAD169"/>
</g>
</svg>
