<svg width="28" height="28" viewBox="0 0 28 28" fill="none" xmlns="http://www.w3.org/2000/svg">
<g clip-path="url(#clip0)">
<path fill-rule="evenodd" clip-rule="evenodd" d="M10.4896 6.98184L17.6751 2.83331C18.1533 2.55717 18.7649 2.72104 19.0411 3.19934L21.2316 6.9935L10.4896 6.98184Z" fill="url(#paint0_linear)"/>
<path d="M2.33331 8.16667C2.33331 7.52232 2.85565 7 3.49998 7H24.5C25.1443 7 25.6666 7.52232 25.6666 8.16667V24.5C25.6666 25.1444 25.1443 25.6667 24.5 25.6667H3.49998C2.85565 25.6667 2.33331 25.1444 2.33331 24.5V8.16667Z" fill="url(#paint1_linear)"/>
<mask id="mask0" mask-type="alpha" maskUnits="userSpaceOnUse" x="15" y="12" width="11" height="9">
<path d="M19.1042 20.4166H25.6667V12.8333H19.1042C16.9296 12.8333 15.1667 14.5309 15.1667 16.625C15.1667 18.719 16.9296 20.4166 19.1042 20.4166Z" fill="#E67421" fill-opacity="0.68"/>
</mask>
<g mask="url(#mask0)">
<rect width="12.8333" height="11.6667" transform="matrix(-1 0 0 1 25.6667 11.6667)" fill="#F37920"/>
</g>
<path fill-rule="evenodd" clip-rule="evenodd" d="M26 20H19.75C17.6789 20 16 18.433 16 16.5C16 14.567 17.6789 13 19.75 13H26V20ZM19.5 18C20.3284 18 21 17.3284 21 16.5C21 15.6716 20.3284 15 19.5 15C18.6716 15 18 15.6716 18 16.5C18 17.3284 18.6716 18 19.5 18Z" fill="url(#paint2_linear)"/>
</g>
<defs>
<linearGradient id="paint0_linear" x1="15.8606" y1="2.33331" x2="20.4166" y2="11.6666" gradientUnits="userSpaceOnUse">
<stop stop-color="#F37920"/>
<stop offset="1" stop-color="#F37920" stop-opacity="0"/>
</linearGradient>
<linearGradient id="paint1_linear" x1="5.24998" y1="7" x2="25.6666" y2="29.1667" gradientUnits="userSpaceOnUse">
<stop stop-color="#FF6C00"/>
<stop offset="1" stop-color="#F37920" stop-opacity="0.29"/>
</linearGradient>
<linearGradient id="paint2_linear" x1="21" y1="13" x2="21" y2="24.8462" gradientUnits="userSpaceOnUse">
<stop stop-color="white"/>
<stop offset="1" stop-color="white" stop-opacity="0.5"/>
</linearGradient>
<clipPath id="clip0">
<rect width="28" height="28" fill="white"/>
</clipPath>
</defs>
</svg>
