<svg width="28" height="28" viewBox="0 0 28 28" fill="none" xmlns="http://www.w3.org/2000/svg">
<circle cx="14" cy="14" r="11" fill="url(#paint0_linear)"/>
<g filter="url(#filter0_f)">
<path fill-rule="evenodd" clip-rule="evenodd" d="M12.1882 11.2757C11.9263 10.9549 11.4538 10.9071 11.1329 11.169C10.812 11.431 10.7643 11.9034 11.0262 12.2243L12.1696 13.625H10.75C10.3358 13.625 10 13.9608 10 14.375C10 14.7892 10.3358 15.125 10.75 15.125H13V16.25H10.75C10.3358 16.25 10 16.5858 10 17C10 17.4142 10.3358 17.75 10.75 17.75H13V18.75C13 19.1642 13.3358 19.5 13.75 19.5C14.1642 19.5 14.5 19.1642 14.5 18.75V17.75H16.75C17.1642 17.75 17.5 17.4142 17.5 17C17.5 16.5858 17.1642 16.25 16.75 16.25H14.5V15.125H16.75C17.1642 15.125 17.5 14.7892 17.5 14.375C17.5 13.9608 17.1642 13.625 16.75 13.625H15.3305L16.4739 12.2243C16.7358 11.9034 16.6881 11.431 16.3672 11.169C16.0463 10.9071 15.5739 10.9549 15.3119 11.2757L13.7501 13.189L12.1882 11.2757Z" fill="#E57421" fill-opacity="0.68"/>
</g>
<path d="M17 7.33289C21.438 8.48151 21.618 12.813 21.618 12.813" stroke="white" stroke-width="1.5" stroke-linecap="round" stroke-linejoin="round"/>
<path d="M21.1787 7.33221L21.6047 12.6469" stroke="white" stroke-width="1.5" stroke-linecap="round" stroke-linejoin="round"/>
<path fill-rule="evenodd" clip-rule="evenodd" d="M11.3829 10.419C11.7037 10.1571 12.1762 10.2049 12.4381 10.5257L14 12.439L15.5619 10.5257C15.8238 10.2049 16.2963 10.1571 16.6171 10.419C16.938 10.681 16.9858 11.1534 16.7238 11.4743L14.581 14.0993C14.4386 14.2738 14.2252 14.375 14 14.375C13.7748 14.375 13.5614 14.2738 13.419 14.0993L11.2761 11.4743C11.0142 11.1534 11.062 10.681 11.3829 10.419Z" fill="white"/>
<path fill-rule="evenodd" clip-rule="evenodd" d="M10.25 16.25C10.25 15.8358 10.5858 15.5 11 15.5H17C17.4142 15.5 17.75 15.8358 17.75 16.25C17.75 16.6642 17.4142 17 17 17H11C10.5858 17 10.25 16.6642 10.25 16.25Z" fill="white"/>
<path fill-rule="evenodd" clip-rule="evenodd" d="M10.25 13.625C10.25 13.2108 10.5858 12.875 11 12.875H17C17.4142 12.875 17.75 13.2108 17.75 13.625C17.75 14.0392 17.4142 14.375 17 14.375H11C10.5858 14.375 10.25 14.0392 10.25 13.625Z" fill="white"/>
<path fill-rule="evenodd" clip-rule="evenodd" d="M14 12.875C14.4142 12.875 14.75 13.2108 14.75 13.625V18C14.75 18.4142 14.4142 18.75 14 18.75C13.5858 18.75 13.25 18.4142 13.25 18V13.625C13.25 13.2108 13.5858 12.875 14 12.875Z" fill="white"/>
<defs>
<filter id="filter0_f" x="9" y="10" width="9.5" height="10.5" filterUnits="userSpaceOnUse" color-interpolation-filters="sRGB">
<feFlood flood-opacity="0" result="BackgroundImageFix"/>
<feBlend mode="normal" in="SourceGraphic" in2="BackgroundImageFix" result="shape"/>
<feGaussianBlur stdDeviation="0.5" result="effect1_foregroundBlur"/>
</filter>
<linearGradient id="paint0_linear" x1="-0.5" y1="7.5" x2="31.1311" y2="20.8152" gradientUnits="userSpaceOnUse">
<stop stop-color="#FF6C00"/>
<stop offset="1" stop-color="#F37920" stop-opacity="0.29"/>
</linearGradient>
</defs>
</svg>
