<svg width="20" height="20" viewBox="0 0 20 20" fill="none" xmlns="http://www.w3.org/2000/svg">
<path d="M4.10752 13.6489C2.59949 14.1013 1.66675 14.7263 1.66675 15.4167C1.66675 16.7974 5.39771 17.9167 10.0001 17.9167C14.6025 17.9167 18.3334 16.7974 18.3334 15.4167C18.3334 14.7263 17.4007 14.1013 15.8926 13.6489" stroke="black" stroke-opacity="0.85" stroke-width="1.5" stroke-linecap="round" stroke-linejoin="round"/>
<path d="M9.99992 14.5833C9.99992 14.5833 15.4166 11.0433 15.4166 6.95074C15.4166 4.03242 12.9915 1.66666 9.99992 1.66666C7.00838 1.66666 4.58325 4.03242 4.58325 6.95074C4.58325 11.0433 9.99992 14.5833 9.99992 14.5833Z" stroke="black" stroke-opacity="0.85" stroke-width="1.5" stroke-linejoin="round"/>
<path d="M10.0001 9.16667C11.1507 9.16667 12.0834 8.23392 12.0834 7.08333C12.0834 5.93275 11.1507 5 10.0001 5C8.8495 5 7.91675 5.93275 7.91675 7.08333C7.91675 8.23392 8.8495 9.16667 10.0001 9.16667Z" stroke="black" stroke-opacity="0.85" stroke-width="1.5" stroke-linejoin="round"/>
</svg>
