<svg width="18" height="18" viewBox="0 0 18 18" fill="none" xmlns="http://www.w3.org/2000/svg">
<ellipse cx="6.47546" cy="14.0345" rx="2.25" ry="2.25" stroke="black" stroke-opacity="0.85" stroke-width="1.5" stroke-linejoin="round"/>
<circle cx="12.9041" cy="14.0345" r="2.25" stroke="black" stroke-opacity="0.85" stroke-width="1.5" stroke-linejoin="round"/>
<path fill-rule="evenodd" clip-rule="evenodd" d="M7.59482 3.5C7.53187 3.5 7.47124 3.52375 7.42503 3.5665L2.58021 8.04935C2.52907 8.09667 2.5 8.16318 2.5 8.23285V13.4761C2.5 13.6142 2.61193 13.7261 2.75 13.7261H4.22546V15.2261H2.75C1.7835 15.2261 1 14.4426 1 13.4761V8.23285C1 7.74516 1.20351 7.27958 1.56148 6.94836L6.4063 2.46551C6.72974 2.16624 7.15417 2 7.59482 2H16.0826C17.0491 2 17.8326 2.7835 17.8326 3.75V13.4761C17.8326 14.4426 17.0491 15.2261 16.0826 15.2261H14.9009V13.7261H16.0826C16.2207 13.7261 16.3326 13.6142 16.3326 13.4761V3.75C16.3326 3.61193 16.2207 3.5 16.0826 3.5H7.59482ZM8.72546 13.7261H10.654V15.2261H8.72546V13.7261Z" fill="black" fill-opacity="0.85"/>
<path fill-rule="evenodd" clip-rule="evenodd" d="M7.54496 5.55554C7.83959 5.55554 8.07844 5.79439 8.07844 6.08902V8.4468C8.07844 8.74144 7.83959 8.98028 7.54496 8.98028H5.56021C5.26558 8.98028 5.02673 8.74144 5.02673 8.4468C5.02673 8.15217 5.26558 7.91332 5.56021 7.91332H7.01148V6.08902C7.01148 5.79439 7.25032 5.55554 7.54496 5.55554Z" fill="black" fill-opacity="0.85"/>
</svg>
