<svg width="1024" height="1024" viewBox="0 0 1024 1024" fill="none" xmlns="http://www.w3.org/2000/svg">
<path d="M924.22 541.37H99.8698C90.3698 541.37 81.2588 537.596 74.5412 530.879C67.8237 524.161 64.0498 515.05 64.0498 505.55V368.19C64.0498 358.69 67.8237 349.579 74.5412 342.862C81.2588 336.144 90.3698 332.37 99.8698 332.37H924.22C933.721 332.37 942.833 336.144 949.552 342.861C956.271 349.578 960.047 358.689 960.05 368.19V505.55C960.047 515.051 956.271 524.162 949.552 530.879C942.833 537.597 933.721 541.37 924.22 541.37ZM118.05 487.37H906.05V386.37H118.05V487.37Z" fill="#595959"/>
<path d="M820 913.32H204.57C195.874 913.328 187.481 910.129 180.996 904.336C174.511 898.542 170.39 890.562 169.42 881.92L129.49 527.65C128.934 522.702 129.429 517.693 130.942 512.95C132.455 508.207 134.951 503.836 138.269 500.124C141.587 496.412 145.651 493.441 150.195 491.407C154.739 489.373 159.662 488.321 164.64 488.32H859.9C864.88 488.318 869.804 489.368 874.35 491.401C878.895 493.434 882.961 496.404 886.279 500.117C889.597 503.83 892.094 508.202 893.605 512.947C895.117 517.691 895.609 522.702 895.05 527.65L855.12 881.92C854.151 890.556 850.034 898.533 843.555 904.326C837.077 910.118 828.691 913.32 820 913.32ZM221.26 859.32H803.32L839.04 542.32H185.5L221.26 859.32Z" fill="#595959"/>
<path d="M343.85 808.07C337.293 808.063 330.963 805.671 326.04 801.339C321.118 797.008 317.94 791.033 317.1 784.53L296.2 622.53C295.284 615.426 297.227 608.249 301.602 602.578C305.977 596.907 312.426 593.206 319.53 592.29C326.634 591.374 333.811 593.317 339.482 597.692C345.153 602.067 348.854 608.516 349.77 615.62L370.67 777.62C371.123 781.137 370.879 784.708 369.952 788.131C369.025 791.553 367.433 794.76 365.266 797.567C363.1 800.374 360.402 802.727 357.326 804.491C354.25 806.256 350.857 807.397 347.34 807.85C346.183 807.998 345.017 808.071 343.85 808.07Z" fill="#595959"/>
<path d="M680.69 808.07C679.523 808.071 678.357 807.997 677.2 807.85C673.683 807.397 670.29 806.256 667.214 804.492C664.138 802.727 661.44 800.374 659.274 797.567C657.107 794.76 655.515 791.554 654.588 788.131C653.661 784.708 653.417 781.137 653.87 777.62L674.77 615.62C675.686 608.515 679.388 602.065 685.06 597.689C690.732 593.312 697.91 591.369 705.015 592.285C712.12 593.201 718.57 596.903 722.946 602.575C727.323 608.247 729.266 615.425 728.35 622.53L707.44 784.53C706.6 791.033 703.422 797.008 698.499 801.339C693.577 805.671 687.247 808.063 680.69 808.07Z" fill="#595959"/>
<path d="M485.05 780.51V619.67C485.05 605.44 495.84 593.24 510.05 592.21C513.753 591.935 517.474 592.427 520.979 593.655C524.483 594.883 527.697 596.821 530.419 599.347C533.141 601.874 535.312 604.935 536.797 608.339C538.282 611.743 539.049 615.416 539.05 619.13V781.05C539.054 784.771 538.288 788.452 536.802 791.863C535.316 795.274 533.141 798.341 530.413 800.872C527.685 803.402 524.464 805.342 520.951 806.568C517.438 807.795 513.71 808.282 510 808C495.84 806.94 485.05 794.74 485.05 780.51Z" fill="#595959"/>
<path d="M584.69 337.29L517.52 152.73C513.731 142.291 507.921 132.702 500.422 124.511C492.923 116.321 483.882 109.689 473.818 104.995C463.753 100.302 452.862 97.6395 441.767 97.1599C430.672 96.6802 419.592 98.393 409.16 102.2H409.07C398.638 105.997 389.056 111.811 380.871 119.311C372.687 126.811 366.06 135.85 361.368 145.911C356.677 155.973 354.014 166.86 353.53 177.95C353.046 189.041 354.752 200.119 358.55 210.55L412.23 358.05H472.23L411.54 191.3C408.986 184.289 409.32 176.551 412.471 169.786C415.621 163.022 421.329 157.786 428.34 155.23H428.39H428.44C431.521 154.096 434.777 153.511 438.06 153.5C443.831 153.517 449.458 155.298 454.188 158.605C458.918 161.912 462.523 166.586 464.52 172L531.7 356.57C531.89 357.08 532.06 357.57 532.2 358.08H589.42C588.726 350.979 587.136 343.993 584.69 337.29Z" fill="#595959"/>
<path d="M839.79 464.35H839.65L736 463.83C728.869 463.676 722.084 460.731 717.101 455.627C712.119 450.523 709.339 443.668 709.357 436.536C709.375 429.404 712.191 422.564 717.2 417.485C722.208 412.407 729.009 409.497 736.14 409.38H736.28L839.98 409.91C847.199 409.928 854.115 412.814 859.207 417.932C864.298 423.05 867.148 429.981 867.13 437.2C867.111 444.419 864.226 451.335 859.108 456.427C853.99 461.518 847.059 464.368 839.84 464.35H839.79Z" fill="#595959"/>
</svg>
