<svg width="18" height="18" viewBox="0 0 18 18" fill="none" xmlns="http://www.w3.org/2000/svg">
<path fill-rule="evenodd" clip-rule="evenodd" d="M10.314 4.53486C9.57981 3.93124 8.65903 3.60086 7.70856 3.60001C7.16866 3.59829 6.63377 3.70358 6.13481 3.90981C5.63584 4.11604 5.1827 4.41911 4.80156 4.80151C4.12904 5.47317 3.7102 6.35722 3.61641 7.30306C3.52261 8.2489 3.75966 9.198 4.28716 9.98866C4.81466 10.7793 5.59998 11.3626 6.50933 11.6392C7.41867 11.9158 8.39578 11.8685 9.27419 11.5055C10.1526 11.1424 10.8779 10.486 11.3267 9.64814C11.7754 8.81026 11.9197 7.84271 11.7351 6.91034C11.5504 5.97797 11.0482 5.13847 10.314 4.53486ZM4.24636 3.49057C5.22218 2.68901 6.44574 2.25059 7.70856 2.25001C8.42561 2.24894 9.13581 2.38951 9.79839 2.66366C10.461 2.9378 11.0629 3.34012 11.5696 3.84751C12.4628 4.74016 13.0189 5.91492 13.1431 7.17162C13.2673 8.42832 12.9519 9.68921 12.2507 10.7395C12.1767 10.8503 12.0989 10.9581 12.0175 11.0627L15.354 14.3949C15.6178 14.6583 15.6181 15.0857 15.3547 15.3494C15.0912 15.6132 14.6639 15.6135 14.4001 15.3501L11.0626 12.017C10.539 12.4243 9.94165 12.7357 9.29756 12.9314C8.08925 13.2984 6.79106 13.2351 5.62418 12.7523C4.45729 12.2695 3.49391 11.3971 2.89816 10.2836C2.30241 9.17013 2.11117 7.88455 2.357 6.64589C2.60284 5.40723 3.27055 4.29212 4.24636 3.49057Z" fill="black" fill-opacity="0.4"/>
</svg>
